<?xml version="1.0" encoding="UTF-8"?>
<svg id="Layer_1" xmlns="http://www.w3.org/2000/svg" viewBox="0 0 144.07 175.28">
  <defs>
    <style>
      .cls-1, .cls-2 {
        fill: #231f20;
        stroke: #231f20;
        stroke-miterlimit: 10;
      }

      .cls-2 {
        stroke-width: 2px;
      }
    </style>
  </defs>
  <path class="cls-1" d="M114,172.24l29.57-.89V.5H.53l-.03,35.53s8.82-8.14,18.23-16.89h-1.14s107.48-.55,107.48-.55l.76,121.77c-.65,9.35-.99,18.44-6.42,25.91-1.55,2.13-3.34,4.18-5.41,5.97Z"/>
  <path class="cls-2" d="M2.63,51.44v12.92l15.75-.75v108.63h21.06V30.75h-15.4s-6.42,5.86-21.41,20.69Z"/>
  <path class="cls-1" d="M81.92,174.78c-26.29,0-32.7-16.14-32.7-40.18v-67.15c0-24.03,6.41-40.38,32.7-40.38s32.6,16.35,32.6,40.38v67.15c0,24.03-6.31,40.18-32.6,40.18ZM81.92,136.78c7.37,0,8.55-3.94,8.55-9.26v-52.98c0-5.12-1.18-9.05-8.55-9.05s-8.54,3.94-8.54,9.05v52.98c0,5.31,1.27,9.26,8.54,9.26Z"/>
</svg>